<svg width="600" height="372" viewBox="0 0 600 372" fill="none" xmlns="http://www.w3.org/2000/svg">
<g clip-path="url(#clip0_1_26)">
<path d="M0 372V0H600V372H0Z" fill="#1F1C23"/>
<circle cx="300" cy="186" r="272" fill="#332F35"/>
<circle cx="300" cy="186" r="202" fill="#1F1C23"/>
<circle cx="300" cy="186" r="132" fill="#332F35"/>
<circle cx="300" cy="186" r="71" fill="#1F1C23"/>
<path d="M182.482 187.7V137H471V235H345.928V215.5H334.795V235H128V137H171.349V187.7H182.482Z" fill="#4C4550"/>
<path d="M165.241 209.4H161.349V147H138V225H188.59V197.7H165.241V209.4Z" fill="#EAEAEA"/>
<path d="M192.482 225H243.072V147H192.482V225ZM215.831 162.6H219.723V209.4H215.831V162.6Z" fill="#EAEAEA"/>
<path d="M274.205 178.2V162.6H278.096V174.3H297.554V147H246.964V193.8H274.205V209.4H270.313V197.7H246.964V225H297.554V178.2H274.205Z" fill="#EAEAEA"/>
<path d="M301.446 225H324.795V205.5H352.036V147H301.446V225ZM324.795 162.6H328.687V189.9H324.795V162.6Z" fill="#EAEAEA"/>
<path d="M355.928 225H406.518V197.7H383.169V209.4H379.277V193.8H406.518V178.2H379.277V162.6H383.169V174.3H406.518V147H355.928V225Z" fill="#EAEAEA"/>
<path d="M461 178.2V147H410.41V225H461V197.7H437.651V209.4H433.759V162.6H437.651V178.2H461Z" fill="#EAEAEA"/>
</g>
<defs>
<clipPath id="clip0_1_26">
<rect width="600" height="372" fill="white"/>
</clipPath>
</defs>
</svg>
